<svg xmlns="http://www.w3.org/2000/svg" viewBox="0 0 200 200">
  <defs>
    <!-- Capsid gradient - emerald green -->
    <linearGradient id="capsidGrad" x1="0%" y1="0%" x2="100%" y2="100%">
      <stop offset="0%" stop-color="#34d399"/>
      <stop offset="50%" stop-color="#22c55e"/>
      <stop offset="100%" stop-color="#16a34a"/>
    </linearGradient>
    <!-- Tail gradient -->
    <linearGradient id="tailGrad" x1="0%" y1="0%" x2="0%" y2="100%">
      <stop offset="0%" stop-color="#22c55e"/>
      <stop offset="100%" stop-color="#15803d"/>
    </linearGradient>
    <!-- DNA glow -->
    <radialGradient id="dnaGlow" cx="50%" cy="50%" r="50%">
      <stop offset="0%" stop-color="#bbf7d0" stop-opacity="0.8"/>
      <stop offset="100%" stop-color="#22c55e" stop-opacity="0"/>
    </radialGradient>
    <!-- Outer glow filter -->
    <filter id="glow" x="-50%" y="-50%" width="200%" height="200%">
      <feGaussianBlur stdDeviation="3" result="blur"/>
      <feMerge>
        <feMergeNode in="blur"/>
        <feMergeNode in="SourceGraphic"/>
      </feMerge>
    </filter>
  </defs>

  <!-- Background glow -->
  <circle cx="100" cy="70" r="50" fill="url(#dnaGlow)" opacity="0.3"/>

  <!-- Icosahedral capsid (phage head) - larger hexagonal shape -->
  <polygon
    points="100,15 145,40 145,85 100,110 55,85 55,40"
    fill="url(#capsidGrad)"
    stroke="#15803d"
    stroke-width="2"
    filter="url(#glow)"
  />

  <!-- DNA double helix inside capsid -->
  <g opacity="0.6">
    <ellipse cx="80" cy="55" rx="8" ry="4" fill="#bbf7d0"/>
    <ellipse cx="120" cy="55" rx="8" ry="4" fill="#bbf7d0"/>
    <ellipse cx="85" cy="70" rx="6" ry="3" fill="#dcfce7"/>
    <ellipse cx="115" cy="70" rx="6" ry="3" fill="#dcfce7"/>
    <ellipse cx="90" cy="85" rx="5" ry="2.5" fill="#bbf7d0"/>
    <ellipse cx="110" cy="85" rx="5" ry="2.5" fill="#bbf7d0"/>
  </g>

  <!-- Collar/neck -->
  <rect x="90" y="108" width="20" height="8" fill="#16a34a" rx="2"/>

  <!-- Tail tube -->
  <rect x="92" y="116" width="16" height="45" fill="url(#tailGrad)" rx="2"/>

  <!-- Tail sheath segments -->
  <g stroke="#15803d" stroke-width="1" opacity="0.5">
    <line x1="92" y1="125" x2="108" y2="125"/>
    <line x1="92" y1="135" x2="108" y2="135"/>
    <line x1="92" y1="145" x2="108" y2="145"/>
    <line x1="92" y1="155" x2="108" y2="155"/>
  </g>

  <!-- Baseplate -->
  <polygon points="85,161 100,168 115,161 115,165 100,172 85,165" fill="#22c55e"/>

  <!-- Tail fibers - 6 fibers spreading out -->
  <g stroke="#22c55e" stroke-width="2.5" fill="none" stroke-linecap="round">
    <!-- Left fibers -->
    <path d="M88 168 Q75 175 60 185"/>
    <path d="M85 170 Q70 180 55 195"/>
    <path d="M90 172 Q80 185 70 200"/>
    <!-- Right fibers -->
    <path d="M112 168 Q125 175 140 185"/>
    <path d="M115 170 Q130 180 145 195"/>
    <path d="M110 172 Q120 185 130 200"/>
  </g>

  <!-- Fiber tips (receptor binding) -->
  <g fill="#34d399">
    <circle cx="60" cy="185" r="3"/>
    <circle cx="55" cy="195" r="3"/>
    <circle cx="70" cy="200" r="3"/>
    <circle cx="140" cy="185" r="3"/>
    <circle cx="145" cy="195" r="3"/>
    <circle cx="130" cy="200" r="3"/>
  </g>
</svg>
